<svg width="242" height="245" viewBox="0 0 242 245" fill="none" xmlns="http://www.w3.org/2000/svg">
<path fill-rule="evenodd" clip-rule="evenodd" d="M92.1168 243.95C92.1207 243.95 92.1246 243.95 92.1285 243.95H107.669C107.673 243.95 107.677 243.95 107.681 243.95C107.773 243.95 107.864 243.947 107.954 243.941H124.339C125.355 243.846 126.15 242.991 126.15 241.95V2C126.15 1.89896 126.142 1.79967 126.128 1.70265C122.356 0.585073 118.462 0 114.48 0H98.1493C98.1476 0 98.1459 0.00250274 98.1459 0.00559004C98.1459 0.00867732 98.1442 0.0111801 98.1425 0.0111801H91.7196C88.1706 0.0111801 85.2932 4.45975 85.2932 9.94737V95.1119C85.2932 100.948 82.2336 105.68 78.4585 105.68H68.7601C64.9856 105.68 61.9254 100.948 61.9254 95.1119V10.5699C61.9254 4.73349 58.8657 0.00215001 55.0907 0.00215001H6.83471C3.06 0.00215001 0 4.7335 0 10.5699V233.373C0 239.209 3.06001 243.941 6.83471 243.941H55.0907C58.8657 243.941 61.9254 239.209 61.9254 233.373V197.267C61.9254 191.431 64.9856 186.699 68.7601 186.699H78.4585C82.2336 186.699 85.2932 191.431 85.2932 197.267V233.382C85.2932 239.213 88.3471 243.94 92.1168 243.95Z" fill="#109CF1"/>
<path fill-rule="evenodd" clip-rule="evenodd" d="M133.279 244.822V0.881592C188.727 1.10676 233.603 43.6032 233.603 95.9926C233.603 139.6 202.51 176.353 160.11 187.58H186.924C217.342 187.58 242 210.854 242 239.565C242 242.468 239.506 244.822 236.431 244.822H133.279Z" fill="#334D6E"/>
</svg>
