<svg width="383" height="138" viewBox="0 0 383 138" fill="none" xmlns="http://www.w3.org/2000/svg">
<path d="M163.558 55.1968C162.244 55.1968 161.588 54.4932 161.588 53.0859V16.9485C161.588 15.5413 162.244 14.8377 163.558 14.8377H167.723C169.337 14.8377 170.556 15.4944 171.382 16.8078L185.736 39.8581H185.933C185.839 38.7323 185.792 37.6065 185.792 36.4807V16.9485C185.792 15.5413 186.449 14.8377 187.762 14.8377H192.04C193.353 14.8377 194.01 15.5413 194.01 16.9485V53.0859C194.01 54.4932 193.353 55.1968 192.04 55.1968H188.156C186.543 55.1968 185.323 54.5401 184.497 53.2267L169.862 29.7542H169.665C169.759 30.88 169.806 32.0058 169.806 33.1316V53.0859C169.806 54.4932 169.149 55.1968 167.836 55.1968H163.558ZM200.934 35.0172C200.934 28.544 202.604 23.403 205.943 19.5941C209.283 15.7852 214.049 13.8808 220.241 13.8808C226.433 13.8808 231.198 15.7852 234.538 19.5941C237.878 23.403 239.548 28.544 239.548 35.0172C239.548 41.4904 237.878 46.6315 234.538 50.4404C231.198 54.2492 226.433 56.1537 220.241 56.1537C214.049 56.1537 209.283 54.2492 205.943 50.4404C202.604 46.6315 200.934 41.4904 200.934 35.0172ZM209.715 35.0172C209.715 39.708 210.55 43.3011 212.22 45.7965C213.908 48.2732 216.582 49.5116 220.241 49.5116C223.9 49.5116 226.564 48.2732 228.234 45.7965C229.922 43.3011 230.767 39.708 230.767 35.0172C230.767 30.3265 229.922 26.7428 228.234 24.2661C226.564 21.7706 223.9 20.5229 220.241 20.5229C216.582 20.5229 213.908 21.7706 212.22 24.2661C210.55 26.7428 209.715 30.3265 209.715 35.0172ZM243.882 16.6952C243.413 15.4569 243.854 14.8377 245.205 14.8377H249.68C250.937 14.8377 251.8 15.485 252.269 16.7796L260.881 40.2802C261.313 41.4811 261.566 42.2879 261.641 42.7007C261.716 43.0947 261.801 43.7608 261.895 44.6989H262.007C262.101 43.7608 262.185 43.0947 262.26 42.7007C262.335 42.2879 262.589 41.4811 263.02 40.2802L271.632 16.7796C272.102 15.485 272.965 14.8377 274.222 14.8377H278.697C280.048 14.8377 280.489 15.4569 280.02 16.6952L266.566 52.9171C266.004 54.4369 265.122 55.1968 263.921 55.1968H259.981C258.78 55.1968 257.898 54.4369 257.335 52.9171L243.882 16.6952ZM277.571 55.1968C276.22 55.1968 275.779 54.5776 276.248 53.3392L290.039 17.1174C290.621 15.5976 291.502 14.8377 292.685 14.8377H296.625C297.807 14.8377 298.689 15.5976 299.27 17.1174L313.061 53.3392C313.53 54.5776 313.089 55.1968 311.738 55.1968H307.263C306.025 55.1968 305.162 54.5495 304.674 53.2548L301.803 45.684H287.506L284.635 53.2548C284.147 54.5495 283.284 55.1968 282.046 55.1968H277.571ZM290.123 38.7041H299.186L295.724 29.7542C295.311 28.7035 295.058 27.9436 294.964 27.4745C294.889 26.9867 294.805 26.2737 294.711 25.3355H294.598C294.505 26.2737 294.411 26.9867 294.317 27.4745C294.242 27.9436 293.998 28.7035 293.585 29.7542L290.123 38.7041Z" fill="#111111"/>
<path d="M168.328 116.298C167.014 116.298 166.358 115.594 166.358 114.187V78.0497C166.358 76.6425 167.014 75.9389 168.328 75.9389H172.606C173.919 75.9389 174.576 76.6425 174.576 78.0497V91.8123H189.718V78.0497C189.718 76.6425 190.374 75.9389 191.688 75.9389H195.966C197.279 75.9389 197.936 76.6425 197.936 78.0497V114.187C197.936 115.594 197.279 116.298 195.966 116.298H191.688C190.374 116.298 189.718 115.594 189.718 114.187V98.7921H174.576V114.187C174.576 115.594 173.919 116.298 172.606 116.298H168.328ZM208.912 116.298C207.599 116.298 206.942 115.594 206.942 114.187V78.0497C206.942 76.6425 207.599 75.9389 208.912 75.9389H213.19C214.503 75.9389 215.16 76.6425 215.16 78.0497V114.187C215.16 115.594 214.503 116.298 213.19 116.298H208.912ZM226.136 116.298C224.823 116.298 224.166 115.594 224.166 114.187V78.0497C224.166 76.6425 224.823 75.9389 226.136 75.9389H239.167C244.965 75.9389 249.196 76.8395 251.86 78.6407C254.525 80.4232 255.857 83.3315 255.857 87.3655C255.857 90.3676 254.778 92.7599 252.62 94.5423C250.463 96.3248 247.723 97.5069 244.402 98.0885V98.1448C246.203 98.8203 247.564 99.7584 248.483 100.959C249.403 102.16 250.153 103.211 250.735 104.111L256.926 113.878C257.958 115.491 257.602 116.298 255.857 116.298H250.96C249.928 116.298 249.084 115.744 248.427 114.637L242.742 105.153C242.123 104.14 240.987 103.033 239.336 101.832C237.704 100.612 236.081 100.002 234.467 100.002H232.385V114.187C232.385 115.594 231.728 116.298 230.414 116.298H226.136ZM232.385 93.0225H237.422C241.175 93.0225 243.839 92.6004 245.415 91.756C247.01 90.8929 247.808 89.5326 247.808 87.6751C247.808 85.6487 247.038 84.3353 245.5 83.7349C243.98 83.1157 241.738 82.8061 238.773 82.8061H232.385V93.0225ZM266.327 116.298C265.013 116.298 264.357 115.594 264.357 114.187V78.0497C264.357 76.6425 265.013 75.9389 266.327 75.9389H270.605C271.918 75.9389 272.575 76.6425 272.575 78.0497V114.187C272.575 115.594 271.918 116.298 270.605 116.298H266.327ZM283.551 116.298C282.238 116.298 281.581 115.594 281.581 114.187V78.0497C281.581 76.6425 282.238 75.9389 283.551 75.9389H287.716C289.33 75.9389 290.55 76.5956 291.375 77.909L305.729 100.959H305.926C305.832 99.8335 305.785 98.7077 305.785 97.5819V78.0497C305.785 76.6425 306.442 75.9389 307.755 75.9389H312.033C313.347 75.9389 314.003 76.6425 314.003 78.0497V114.187C314.003 115.594 313.347 116.298 312.033 116.298H308.149C306.536 116.298 305.316 115.641 304.491 114.328L289.855 90.8554H289.658C289.752 91.9812 289.799 93.107 289.799 94.2327V114.187C289.799 115.594 289.142 116.298 287.829 116.298H283.551ZM320.927 96.1184C320.927 89.6452 322.616 84.5042 325.993 80.6953C329.37 76.8864 334.155 74.982 340.347 74.982C344.08 74.982 347.007 75.4604 349.128 76.4173C351.267 77.3742 353.143 78.8565 354.756 80.8641C355.732 82.0837 355.704 83.0313 354.672 83.7067L351.464 85.7894C350.525 86.4086 349.522 86.1365 348.452 84.9732C347.57 84.0163 346.454 83.2189 345.103 82.581C343.752 81.943 342.26 81.624 340.628 81.624C336.688 81.624 333.883 82.8718 332.213 85.3673C330.543 87.844 329.708 91.4277 329.708 96.1184C329.708 100.809 330.543 104.402 332.213 106.898C333.883 109.374 336.688 110.613 340.628 110.613C342.542 110.613 344.193 110.425 345.581 110.05C346.97 109.656 348.283 108.952 349.522 107.939V102.901H343.414C342.007 102.901 341.303 102.291 341.303 101.072V97.7508C341.303 96.5312 342.007 95.9214 343.414 95.9214H355.629C357.036 95.9214 357.74 96.5312 357.74 97.7508V112.048C355.113 113.981 352.458 115.332 349.775 116.101C347.111 116.87 343.968 117.255 340.347 117.255C334.249 117.255 329.483 115.35 326.049 111.542C322.634 107.733 320.927 102.592 320.927 96.1184Z" fill="#111111"/>
<path d="M71.0229 36.0672V14.1494C71.0229 8.31167 66.2905 3.57925 60.4527 3.57925C54.615 3.57925 49.8826 8.31167 49.8826 14.1494V66.5661L23.5009 9.94362C21.6921 6.06139 17.7973 3.57925 13.5143 3.57925C7.42961 3.57925 2.49697 8.51189 2.49697 14.5966V110.208C2.49697 115.972 7.16975 120.645 12.9339 120.645C18.6981 120.645 23.3709 115.972 23.3709 110.208V57.0508L50.1008 114.014L50.2031 114.24C51.9667 118.139 55.8496 120.645 60.1289 120.645C66.1455 120.645 71.0229 115.767 71.0229 109.751V88.102C71.0229 80.4521 77.2244 74.2505 84.8744 74.2505C92.5244 74.2505 98.7259 80.4521 98.7259 88.102V110.227C98.7259 115.98 103.39 120.645 109.144 120.645C114.898 120.645 119.563 115.98 119.563 110.226V13.9976C119.563 8.24369 114.898 3.57925 109.144 3.57925C103.39 3.57925 98.7259 8.2437 98.7259 13.9976V36.0672C98.7259 43.7172 92.5244 49.9187 84.8744 49.9187C77.2244 49.9187 71.0229 43.7172 71.0229 36.0672Z" fill="#3269DF" stroke="#3269DF" stroke-width="4.7541" stroke-linejoin="round"/>
</svg>
